<svg width="50" height="51" viewBox="0 0 50 51" fill="none" xmlns="http://www.w3.org/2000/svg">
<g clip-path="url(#clip0_175_252)">
<path d="M25 50.8184C38.8071 50.8184 50 39.6255 50 25.8184C50 12.0112 38.8071 0.818359 25 0.818359C11.1929 0.818359 0 12.0112 0 25.8184C0 39.6255 11.1929 50.8184 25 50.8184Z" fill="#F0F0F0"/>
<path d="M24.9998 0.818359C15.0883 0.818359 6.52422 6.58643 2.48047 14.9488H47.519C43.4754 6.58643 34.9112 0.818359 24.9998 0.818359V0.818359Z" fill="#338AF3"/>
<path d="M24.9998 50.818C34.9112 50.818 43.4754 45.0499 47.5191 36.6875H2.48047C6.52422 45.0499 15.0883 50.818 24.9998 50.818Z" fill="#338AF3"/>
<path d="M32.4717 25.8181L29.4185 27.2543L31.0443 30.2112L27.7289 29.577L27.3088 32.9262L24.9995 30.4629L22.6901 32.9262L22.2701 29.577L18.9547 30.2111L20.5805 27.2542L17.5273 25.8181L20.5806 24.3818L18.9547 21.425L22.27 22.0592L22.6902 18.71L24.9995 21.1732L27.3089 18.71L27.7289 22.0592L31.0444 21.425L29.4186 24.3819L32.4717 25.8181Z" fill="#FFDA44"/>
</g>
<defs>
<clipPath id="clip0_175_252">
<rect width="50" height="50" fill="white" transform="translate(0 0.818359)"/>
</clipPath>
</defs>
</svg>
