<svg width="50" height="51" viewBox="0 0 50 51" fill="none" xmlns="http://www.w3.org/2000/svg">
<g clip-path="url(#clip0_175_247)">
<path d="M25 50.9092C38.8071 50.9092 50 39.7163 50 25.9092C50 12.1021 38.8071 0.90918 25 0.90918C11.1929 0.90918 0 12.1021 0 25.9092C0 39.7163 11.1929 50.9092 25 50.9092Z" fill="#F0F0F0"/>
<path d="M49.9997 25.9089C49.9997 15.1598 43.2153 5.99619 33.6953 2.46387V49.354C43.2153 45.8216 49.9997 36.658 49.9997 25.9089V25.9089Z" fill="#D80027"/>
<path d="M0 25.9089C0 36.658 6.78447 45.8216 16.3044 49.3539V2.46387C6.78447 5.99619 0 15.1598 0 25.9089Z" fill="#0052B4"/>
</g>
<defs>
<clipPath id="clip0_175_247">
<rect width="50" height="50" fill="white" transform="translate(0 0.90918)"/>
</clipPath>
</defs>
</svg>
