<svg width="50" height="51" viewBox="0 0 50 51" fill="none" xmlns="http://www.w3.org/2000/svg">
<g clip-path="url(#clip0_175_247)">
<path d="M50 25.9092C50 39.7162 38.807 50.9092 25 50.9092C11.193 50.9092 0 39.7162 0 25.9092C0 25.915 25 0.912012 25 0.90918C38.807 0.90918 50 12.1021 50 25.9092Z" fill="#0052B4"/>
<path d="M24.9336 25.9087H25.0005C25.0005 25.886 25.0005 25.8644 25.0005 25.8418C24.9782 25.8642 24.956 25.8864 24.9336 25.9087Z" fill="#F0F0F0"/>
<path d="M25 13.9526C25 9.55371 25 6.67119 25 0.90918H24.9958C11.1906 0.911426 0 12.1033 0 25.9091H13.0435V18.5642L20.3884 25.9091H24.9332C24.9556 25.8868 24.9778 25.8646 25.0001 25.8422C25.0001 24.1579 25.0001 22.6551 25.0001 21.2977L17.6551 13.9526H25Z" fill="#F0F0F0"/>
<path d="M12.6479 4.16992C8.73779 6.39639 5.48721 9.64697 3.26074 13.557V25.9091H9.78252V10.6918V10.6917H24.9999C24.9999 8.63477 24.9999 6.6752 24.9999 4.16992H12.6479Z" fill="#D80027"/>
<path d="M24.9994 22.8352L16.1173 13.9532H13.043C13.043 13.9531 13.043 13.9532 13.043 13.9532L24.9993 25.9095H24.9994C24.9994 25.9095 24.9994 23.7899 24.9994 22.8352Z" fill="#D80027"/>
<path d="M15.0774 30.2568L16.4495 33.1258L19.5479 32.4097L18.1604 35.2712L20.652 37.2471L17.5497 37.9463L17.5584 41.1264L15.0774 39.1368L12.5966 41.1264L12.6053 37.9463L9.50293 37.2471L11.9946 35.2712L10.6069 32.4097L13.7055 33.1258L15.0774 30.2568Z" fill="#F0F0F0"/>
<path d="M37.4298 35.6914L38.1158 37.1259L39.665 36.7678L38.9712 38.1985L40.2171 39.1865L38.6659 39.5361L38.6702 41.1262L37.4298 40.1313L36.1894 41.1262L36.1937 39.5361L34.6426 39.1865L35.8884 38.1985L35.1946 36.7678L36.7438 37.1259L37.4298 35.6914Z" fill="#F0F0F0"/>
<path d="M31.048 20.4736L31.734 21.9082L33.2832 21.55L32.5895 22.9808L33.8353 23.9687L32.2842 24.3184L32.2884 25.9084L31.048 24.9136L29.8076 25.9084L29.8118 24.3184L28.2607 23.9687L29.5065 22.9808L28.8128 21.55L30.362 21.9082L31.048 20.4736Z" fill="#F0F0F0"/>
<path d="M37.4298 11.7783L38.1158 13.2129L39.665 12.8548L38.9713 14.2855L40.217 15.2734L38.6659 15.6231L38.6702 17.2132L37.4298 16.2184L36.1894 17.2132L36.1937 15.6231L34.6426 15.2734L35.8883 14.2855L35.1946 12.8548L36.7438 13.2129L37.4298 11.7783Z" fill="#F0F0F0"/>
<path d="M43.0041 18.2998L43.69 19.7344L45.2393 19.3762L44.5455 20.8069L45.7913 21.7949L44.2401 22.1446L44.2444 23.7346L43.0041 22.7398L41.7637 23.7346L41.7679 22.1446L40.2168 21.7949L41.4626 20.8069L40.7688 19.3762L42.318 19.7344L43.0041 18.2998Z" fill="#F0F0F0"/>
<path d="M39.0183 25.9092L39.5578 27.5699H41.3041L39.8913 28.5964L40.4311 30.257L39.0183 29.2307L37.6056 30.257L38.1451 28.5964L36.7324 27.5699H38.4786L39.0183 25.9092Z" fill="#F0F0F0"/>
</g>
<defs>
<clipPath id="clip0_175_247">
<rect width="50" height="50" fill="white" transform="translate(0 0.90918)"/>
</clipPath>
</defs>
</svg>
