<svg width="50" height="51" viewBox="0 0 50 51" fill="none" xmlns="http://www.w3.org/2000/svg">
<g clip-path="url(#clip0_175_247)">
<path d="M25 50.9092C38.8071 50.9092 50 39.7163 50 25.9092C50 12.1021 38.8071 0.90918 25 0.90918C11.1929 0.90918 0 12.1021 0 25.9092C0 39.7163 11.1929 50.9092 25 50.9092Z" fill="#F0F0F0"/>
<path d="M49.9996 25.909C49.9996 15.9975 44.2315 7.4334 35.8691 3.38965V48.4282C44.2315 44.3846 49.9996 35.8205 49.9996 25.909V25.909Z" fill="#D80027"/>
<path d="M0 25.909C0 35.8205 5.76807 44.3846 14.1305 48.4283V3.38965C5.76807 7.4334 0 15.9975 0 25.909Z" fill="#D80027"/>
<path d="M29.3481 29.1693L33.6959 26.9954L31.5221 25.9085V23.7346L27.1742 25.9085L29.3481 21.5606H27.1742L25.0003 18.2998L22.8264 21.5606H20.6524L22.8264 25.9085L18.4785 23.7346V25.9085L16.3047 26.9954L20.6524 29.1693L19.5655 31.3433H23.9134V34.6041H26.0872V31.3433H30.4351L29.3481 29.1693Z" fill="#D80027"/>
</g>
<defs>
<clipPath id="clip0_175_247">
<rect width="50" height="50" fill="white" transform="translate(0 0.90918)"/>
</clipPath>
</defs>
</svg>
