<svg width="50" height="51" viewBox="0 0 50 51" fill="none" xmlns="http://www.w3.org/2000/svg">
<g clip-path="url(#clip0_175_247)">
<path d="M50 25.9096C50 22.8516 49.4499 19.9222 48.445 17.214L25 16.127L1.55498 17.2139C0.550098 19.9222 0 22.8516 0 25.9096C0 28.9676 0.550098 31.897 1.55498 34.6052L25 35.6922L48.445 34.6053C49.4499 31.897 50 28.9676 50 25.9096Z" fill="#F0F0F0"/>
<path d="M24.9997 50.9089C35.7488 50.9089 44.9124 44.1245 48.4447 34.6045H1.55469C5.08701 44.1245 14.2506 50.9089 24.9997 50.9089Z" fill="#0052B4"/>
<path d="M1.55469 17.2136H48.4448C44.9124 7.69355 35.7488 0.90918 24.9997 0.90918C14.2506 0.90918 5.08701 7.69355 1.55469 17.2136V17.2136Z" fill="#D80027"/>
<path d="M31.5217 18.3002H27.1738L27.8985 12.8653L30.797 10.6914L33.6955 12.8653V17.2132L31.5217 18.3002Z" fill="#338AF3"/>
<path d="M18.4785 18.3002H22.8264L22.1017 12.8653L19.2031 10.6914L16.3047 12.8653V17.2132L18.4785 18.3002Z" fill="#338AF3"/>
<path d="M27.8988 18.3002H22.1016V12.8653L25.0002 10.6914L27.8988 12.8653V18.3002Z" fill="#0052B4"/>
<path d="M16.3047 17.2139V29.1703C16.3047 32.0173 17.6799 34.5491 19.801 36.1363L21.3228 35.7556L23.2431 37.6874C23.8109 37.8044 24.3985 37.866 25.0004 37.866C25.599 37.866 26.1837 37.8052 26.7485 37.6894L28.9406 35.8642L30.1996 36.1328C32.3198 34.5457 33.696 32.0165 33.696 29.1703V17.2139H16.3047Z" fill="#F0F0F0"/>
<path d="M16.3047 17.2139H19.7829V20.6921H16.3047V17.2139Z" fill="#D80027"/>
<path d="M23.2607 17.2139H26.739V20.6921H23.2607V17.2139Z" fill="#D80027"/>
<path d="M30.2178 17.2139H33.696V20.6921H30.2178V17.2139Z" fill="#D80027"/>
<path d="M19.7832 20.6924H23.2614V24.1706H19.7832V20.6924Z" fill="#D80027"/>
<path d="M26.7393 20.6924H30.2175V24.1706H26.7393V20.6924Z" fill="#D80027"/>
<path d="M16.3047 24.1689H19.7829V27.6472H16.3047V24.1689Z" fill="#D80027"/>
<path d="M19.7832 27.6475H23.2614V31.1257H19.7832V27.6475Z" fill="#D80027"/>
<path d="M23.2607 24.1689H26.739V27.6472H23.2607V24.1689Z" fill="#D80027"/>
<path d="M30.2178 24.1689H33.696V27.6472H30.2178V24.1689Z" fill="#D80027"/>
<path d="M26.7393 27.6475H30.2175V31.1257H26.7393V27.6475Z" fill="#D80027"/>
<path d="M23.2607 31.126H26.739V34.6042H23.2607V31.126Z" fill="#D80027"/>
<path d="M19.7831 31.126H16.5293C16.8277 32.4189 17.4145 33.6021 18.2189 34.6042H19.7831V31.126Z" fill="#D80027"/>
<path d="M30.2178 34.6042H31.7818C32.5865 33.6021 33.173 32.4188 33.4715 31.126H30.2178V34.6042Z" fill="#D80027"/>
<path d="M19.7832 34.6045V36.1222C20.7948 36.8834 21.977 37.4292 23.2614 37.6911V34.6045H19.7832Z" fill="#D80027"/>
<path d="M26.7393 34.6045V37.6911C28.0237 37.4294 29.2059 36.8834 30.2175 36.1222V34.6045H26.7393Z" fill="#D80027"/>
</g>
<defs>
<clipPath id="clip0_175_247">
<rect width="50" height="50" fill="white" transform="translate(0 0.90918)"/>
</clipPath>
</defs>
</svg>
