<svg width="50" height="51" viewBox="0 0 50 51" fill="none" xmlns="http://www.w3.org/2000/svg">
<g clip-path="url(#clip0_175_252)">
<path d="M25 50.8184C38.8071 50.8184 50 39.6255 50 25.8184C50 12.0112 38.8071 0.818359 25 0.818359C11.1929 0.818359 0 12.0112 0 25.8184C0 39.6255 11.1929 50.8184 25 50.8184Z" fill="#6DA544"/>
<path d="M14.1299 30.71C14.1299 32.5108 15.5898 33.9708 17.3907 33.9708H27.1733C27.1733 35.4716 28.3899 36.6882 29.8907 36.6882H33.1516C34.6523 36.6882 35.8689 35.4716 35.8689 33.9708V30.71H14.1299Z" fill="#F0F0F0"/>
<path d="M36.1407 14.9492V22.5579C36.1407 23.7566 35.1655 24.7318 33.9668 24.7318V27.9927C36.9636 27.9927 39.4016 25.5546 39.4016 22.5579V14.9492H36.1407Z" fill="#F0F0F0"/>
<path d="M12.7716 22.5579C12.7716 23.7566 11.7964 24.7318 10.5977 24.7318V27.9927C13.5944 27.9927 16.0324 25.5546 16.0324 22.5579V14.9492H12.7716V22.5579Z" fill="#F0F0F0"/>
<path d="M31.25 14.9492H34.5108V22.5579H31.25V14.9492Z" fill="#F0F0F0"/>
<path d="M26.3587 19.2971C26.3587 19.5968 26.1148 19.8405 25.8152 19.8405C25.5156 19.8405 25.2718 19.5967 25.2718 19.2971V14.9492H22.0109V19.2971C22.0109 19.5968 21.7671 19.8405 21.4675 19.8405C21.1679 19.8405 20.924 19.5967 20.924 19.2971V14.9492H17.6631V19.2971C17.6631 21.3948 19.3697 23.1015 21.4675 23.1015C22.2754 23.1015 23.0246 22.8476 23.6414 22.4163C24.2581 22.8475 25.0074 23.1015 25.8153 23.1015C25.978 23.1015 26.138 23.09 26.2953 23.07C26.0643 24.0221 25.2068 24.7318 24.1849 24.7318V27.9927C27.1816 27.9927 29.6196 25.5546 29.6196 22.5579V19.2971V14.9492H26.3588V19.2971H26.3587Z" fill="#F0F0F0"/>
<path d="M17.6631 24.7314H22.5544V27.9923H17.6631V24.7314Z" fill="#F0F0F0"/>
</g>
<defs>
<clipPath id="clip0_175_252">
<rect width="50" height="50" fill="white" transform="translate(0 0.818359)"/>
</clipPath>
</defs>
</svg>
