<svg width="50" height="51" viewBox="0 0 50 51" fill="none" xmlns="http://www.w3.org/2000/svg">
<g clip-path="url(#clip0_175_252)">
<path d="M25 50.8184C38.8071 50.8184 50 39.6255 50 25.8184C50 12.0112 38.8071 0.818359 25 0.818359C11.1929 0.818359 0 12.0112 0 25.8184C0 39.6255 11.1929 50.8184 25 50.8184Z" fill="#F0F0F0"/>
<path d="M50 25.8184C50 39.6254 38.807 50.8184 25 50.8184C11.193 50.8184 0 39.6254 0 25.8184" fill="#496E2D"/>
<path d="M43.2628 18.2155C42.3688 15.6801 39.953 13.8623 37.1117 13.8623H31.5215C27.9196 13.8623 24.9997 16.7822 24.9997 20.3841C24.9997 21.5608 25.313 22.6918 25.8582 23.6449C23.7823 23.6279 21.8611 23.6593 20.6519 23.6449C20.6519 21.1297 20.6519 17.9256 20.6519 17.2552L20.9087 16.9983C22.0616 15.8454 21.6771 13.9239 21.6771 13.9239C21.6771 13.9239 19.7559 13.5396 18.6029 14.6926L17.2593 16.0362H15.7605C12.4588 16.0362 9.78232 18.7128 9.78232 22.0145H14.1302V26.9058C14.1302 27.6212 14.2744 28.3027 14.5351 28.9234L13.0432 30.1666H10.8692V27.9927H8.69531V32.3405H18.4779V36.6884H16.304V38.8623H20.6519V34.5145L22.6445 32.1231H27.3548L29.3475 34.5145V36.6884H27.1735V38.8623H35.8691V26.9057C35.8691 25.1048 37.3291 23.6448 39.13 23.6448C39.1763 23.6448 39.2222 23.6465 39.2681 23.6483C39.178 23.2999 39.13 22.9346 39.13 22.5579C39.1302 20.2289 40.9615 18.3277 43.2628 18.2155V18.2155ZM31.5215 36.6883V32.123H31.7026L33.6953 34.5144V36.6883H31.5215Z" fill="#D80027"/>
</g>
<defs>
<clipPath id="clip0_175_252">
<rect width="50" height="50" fill="white" transform="translate(0 0.818359)"/>
</clipPath>
</defs>
</svg>
