<svg width="50" height="51" viewBox="0 0 50 51" fill="none" xmlns="http://www.w3.org/2000/svg">
<g clip-path="url(#clip0_175_252)">
<path d="M25 50.8184C38.8071 50.8184 50 39.6255 50 25.8184C50 12.0112 38.8071 0.818359 25 0.818359C11.1929 0.818359 0 12.0112 0 25.8184C0 39.6255 11.1929 50.8184 25 50.8184Z" fill="#F0F0F0"/>
<path d="M49.9996 25.8184C49.9996 12.0113 38.8066 0.818359 24.9996 0.818359C20.109 0.818359 15.5471 2.22412 11.6937 4.65146L17.1735 6.97969L9.78223 10.1201L17.1735 13.2604L9.78223 16.4007L17.1735 19.5408L9.78223 22.6806L17.1735 25.8201L9.78223 28.9604L17.1735 32.1004L9.78223 35.2401L17.1735 38.3802L9.78223 41.5204L17.1735 44.6602L11.6962 46.9871C15.549 49.4133 20.11 50.8184 24.9996 50.8184C38.8066 50.8184 49.9996 39.6254 49.9996 25.8184Z" fill="#751A46"/>
</g>
<defs>
<clipPath id="clip0_175_252">
<rect width="50" height="50" fill="white" transform="translate(0 0.818359)"/>
</clipPath>
</defs>
</svg>
