<svg width="50" height="51" viewBox="0 0 50 51" fill="none" xmlns="http://www.w3.org/2000/svg">
<g clip-path="url(#clip0_175_341)">
<path d="M33.6952 2.28252C30.9868 1.27764 28.0576 0.727539 24.9996 0.727539C21.9416 0.727539 19.0122 1.27764 16.304 2.28252L14.1301 25.7275L16.304 49.1726C19.0122 50.1774 21.9416 50.7275 24.9996 50.7275C28.0576 50.7275 30.9868 50.1774 33.6952 49.1726L35.8691 25.7275L33.6952 2.28252Z" fill="#F0F0F0"/>
<path d="M50 25.7271C50 14.9781 43.2156 5.81445 33.6956 2.28223L33.6956 49.1724C43.2156 45.6398 50 36.4764 50 25.7271V25.7271Z" fill="#D80027"/>
<path d="M0.000294141 25.7272C0.000294141 36.4764 6.78467 45.6398 16.3047 49.1723L16.3047 2.28223C6.78467 5.81445 0.000294141 14.9781 0.000294141 25.7272V25.7272Z" fill="#6DA544"/>
</g>
<defs>
<clipPath id="clip0_175_341">
<rect width="50" height="50" fill="white" transform="translate(50 0.727539) rotate(90)"/>
</clipPath>
</defs>
</svg>
