<svg width="50" height="51" viewBox="0 0 50 51" fill="none" xmlns="http://www.w3.org/2000/svg">
<g clip-path="url(#clip0_175_247)">
<path d="M33.696 2.46416C30.9877 1.45928 28.0584 0.90918 25.0004 0.90918C21.9424 0.90918 19.0131 1.45928 16.3048 2.46416L14.1309 25.9092L16.3048 49.3542C19.0131 50.3592 21.9424 50.9092 25.0004 50.9092C28.0584 50.9092 30.9877 50.3592 33.696 49.3542L35.8699 25.9092L33.696 2.46416Z" fill="#FFDA44"/>
<path d="M49.9997 25.9088C49.9997 15.1598 43.2153 5.99609 33.6953 2.46387V49.354C43.2153 45.8215 49.9997 36.658 49.9997 25.9088V25.9088Z" fill="#D80027"/>
<path d="M0 25.9088C0 36.658 6.78437 45.8215 16.3044 49.3539V2.46387C6.78437 5.99609 0 15.1598 0 25.9088V25.9088Z" fill="black"/>
</g>
<defs>
<clipPath id="clip0_175_247">
<rect width="50" height="50" fill="white" transform="translate(0 0.90918)"/>
</clipPath>
</defs>
</svg>
