<svg width="50" height="51" viewBox="0 0 50 51" fill="none" xmlns="http://www.w3.org/2000/svg">
<g clip-path="url(#clip0_175_252)">
<path d="M25 50.8184C38.8071 50.8184 50 39.6255 50 25.8184C50 12.0112 38.8071 0.818359 25 0.818359C11.1929 0.818359 0 12.0112 0 25.8184C0 39.6255 11.1929 50.8184 25 50.8184Z" fill="#F0F0F0"/>
<path d="M33.1198 19.297H29.8489C29.876 19.6564 29.8913 20.0191 29.8913 20.3839C29.8913 22.8022 29.2868 25.1463 28.233 26.8148C27.9079 27.3295 27.3616 28.0563 26.6304 28.5465V19.2969H23.3695V28.5465C22.6384 28.0563 22.092 27.3296 21.7669 26.8148C20.713 25.1463 20.1086 22.8022 20.1086 20.3839C20.1086 20.0191 20.124 19.6563 20.151 19.297H16.8801C16.8591 19.6547 16.8477 20.017 16.8477 20.3839C16.8477 27.0886 20.4285 32.3404 24.9998 32.3404C29.5711 32.3404 33.152 27.0886 33.152 20.3839C33.1522 20.017 33.1407 19.6547 33.1198 19.297V19.297Z" fill="#D80027"/>
<path d="M10.3259 12.7749H13.5867V14.9488H16.8476V12.7749H20.1084V14.9488H23.3692V12.7749H26.6301V14.9488H29.8909V12.7749H33.1518V14.9488H36.4126V12.7749H39.6734V14.9488H47.5188C43.4754 6.58643 34.9112 0.818359 24.9998 0.818359C15.0884 0.818359 6.52422 6.58643 2.48047 14.9488H10.3259V12.7749Z" fill="#6DA544"/>
<path d="M39.6737 36.6875V38.8614H36.4129V36.6875H33.1521V38.8614H29.8912V36.6875H26.6304V38.8614H23.3695V36.6875H20.1087V38.8614H16.8479V36.6875H13.5867V38.8614H10.3259V36.6875H2.48047C6.52422 45.0499 15.0883 50.818 24.9998 50.818C34.9113 50.818 43.4754 45.0499 47.5191 36.6875H39.6737Z" fill="#D80027"/>
</g>
<defs>
<clipPath id="clip0_175_252">
<rect width="50" height="50" fill="white" transform="translate(0 0.818359)"/>
</clipPath>
</defs>
</svg>
