<svg width="50" height="51" viewBox="0 0 50 51" fill="none" xmlns="http://www.w3.org/2000/svg">
<g clip-path="url(#clip0_175_252)">
<path d="M25 50.8184C38.8071 50.8184 50 39.6255 50 25.8184C50 12.0112 38.8071 0.818359 25 0.818359C11.1929 0.818359 0 12.0112 0 25.8184C0 39.6255 11.1929 50.8184 25 50.8184Z" fill="#F0F0F0"/>
<path d="M19.5655 22.5575H49.7886C48.1906 10.2912 37.702 0.818359 25.0002 0.818359C23.1335 0.818359 21.3154 1.02471 19.5654 1.4126V22.5575H19.5655Z" fill="#D80027"/>
<path d="M13.0437 22.5577V3.8584C6.1792 7.60391 1.26494 14.4741 0.211914 22.5578H13.0437V22.5577Z" fill="#D80027"/>
<path d="M13.0437 29.0791H0.211914C1.26494 37.1628 6.1792 44.033 13.0437 47.7784L13.0437 29.0791Z" fill="#D80027"/>
<path d="M19.5654 29.0792V50.224C21.3154 50.6119 23.1335 50.8183 25.0002 50.8183C37.702 50.8183 48.1906 41.3454 49.7886 29.0791H19.5654V29.0792Z" fill="#D80027"/>
</g>
<defs>
<clipPath id="clip0_175_252">
<rect width="50" height="50" fill="white" transform="translate(0 0.818359)"/>
</clipPath>
</defs>
</svg>
