<svg width="50" height="51" viewBox="0 0 50 51" fill="none" xmlns="http://www.w3.org/2000/svg">
<g clip-path="url(#clip0_175_252)">
<path d="M25 50.8184C38.8071 50.8184 50 39.6255 50 25.8184C50 12.0112 38.8071 0.818359 25 0.818359C11.1929 0.818359 0 12.0112 0 25.8184C0 39.6255 11.1929 50.8184 25 50.8184Z" fill="#F0F0F0"/>
<path d="M24.9997 0.818359C14.2506 0.818359 5.08701 7.60273 1.55469 17.1228H48.4448C44.9124 7.60273 35.7488 0.818359 24.9997 0.818359V0.818359Z" fill="#A2001D"/>
<path d="M24.9997 50.8181C35.7488 50.8181 44.9124 44.0337 48.4447 34.5137H1.55469C5.08701 44.0337 14.2506 50.8181 24.9997 50.8181Z" fill="#0052B4"/>
</g>
<defs>
<clipPath id="clip0_175_252">
<rect width="50" height="50" fill="white" transform="translate(0 0.818359)"/>
</clipPath>
</defs>
</svg>
