<svg width="50" height="51" viewBox="0 0 50 51" fill="none" xmlns="http://www.w3.org/2000/svg">
<g clip-path="url(#clip0_175_247)">
<path d="M0 25.9096C0 28.9676 0.550098 31.8969 1.55498 34.6052L25 36.7791L48.445 34.6052C49.4499 31.8969 50 28.9676 50 25.9096C50 22.8516 49.4499 19.9223 48.445 17.214L25 15.04L1.55498 17.214C0.550098 19.9223 0 22.8516 0 25.9096H0Z" fill="#FFDA44"/>
<path d="M48.4447 17.2136C44.9124 7.69365 35.7488 0.90918 24.9997 0.90918C14.2506 0.90918 5.08701 7.69365 1.55469 17.2136H48.4447Z" fill="#D80027"/>
<path d="M1.55469 34.6045C5.08701 44.1244 14.2506 50.9089 24.9997 50.9089C35.7488 50.9089 44.9124 44.1244 48.4447 34.6045H1.55469Z" fill="#D80027"/>
</g>
<defs>
<clipPath id="clip0_175_247">
<rect width="50" height="50" fill="white" transform="translate(0 0.90918)"/>
</clipPath>
</defs>
</svg>
