<svg width="50" height="51" viewBox="0 0 50 51" fill="none" xmlns="http://www.w3.org/2000/svg">
<g clip-path="url(#clip0_175_247)">
<path d="M25 50.9092C38.8071 50.9092 50 39.7163 50 25.9092C50 12.1021 38.8071 0.90918 25 0.90918C11.1929 0.90918 0 12.1021 0 25.9092C0 39.7163 11.1929 50.9092 25 50.9092Z" fill="#F0F0F0"/>
<path d="M22.8261 25.9092C22.8261 25.9092 7.33691 43.5903 7.32227 43.5868C11.8463 48.1109 18.0964 50.9092 25 50.9092C38.807 50.9092 50 39.7162 50 25.9092H22.8261Z" fill="#D80027"/>
<path d="M7.32231 8.23145C-2.44077 17.9945 -2.44077 33.8237 7.32231 43.5869C11.3568 39.5524 15.237 35.6723 25 25.9092L7.32231 8.23145Z" fill="#0052B4"/>
</g>
<defs>
<clipPath id="clip0_175_247">
<rect width="50" height="50" fill="white" transform="translate(0 0.90918)"/>
</clipPath>
</defs>
</svg>
