<svg width="50" height="51" viewBox="0 0 50 51" fill="none" xmlns="http://www.w3.org/2000/svg">
<g clip-path="url(#clip0_175_252)">
<path d="M0 25.8184C0 12.0113 11.193 0.818359 25 0.818359C38.807 0.818359 50 12.0113 50 25.8184L25 27.9923L0 25.8184Z" fill="#FFDA44"/>
<path d="M3.3457 38.318C7.66846 45.7902 15.747 50.818 25.0004 50.818C34.2538 50.818 42.3323 45.7902 46.6551 38.318L25.0004 36.6875L3.3457 38.318Z" fill="#D80027"/>
<path d="M46.6547 38.3184C48.7818 34.6412 50 30.3722 50 25.8184H0C0 30.3722 1.21816 34.6412 3.34531 38.3184H46.6547Z" fill="#0052B4"/>
<path d="M25.0003 34.5143C29.8027 34.5143 33.6959 30.6211 33.6959 25.8187C33.6959 21.0162 29.8027 17.123 25.0003 17.123C20.1978 17.123 16.3047 21.0162 16.3047 25.8187C16.3047 30.6211 20.1978 34.5143 25.0003 34.5143Z" fill="#FFDA44"/>
<path d="M25.0002 31.2534C22.0034 31.2534 19.5654 28.8153 19.5654 25.8187V22.5578C19.5654 19.561 22.0035 17.123 25.0002 17.123C27.9969 17.123 30.435 19.5611 30.435 22.5578V25.8187C30.435 28.8154 27.997 31.2534 25.0002 31.2534Z" fill="#338AF3"/>
<path d="M33.6961 12.7745H27.1743C27.1743 11.5739 26.201 10.6006 25.0004 10.6006C23.7998 10.6006 22.8265 11.5739 22.8265 12.7745H16.3047C16.3047 13.9752 17.3505 14.9484 18.551 14.9484H18.4786C18.4786 16.1491 19.4519 17.1224 20.6525 17.1224C20.6525 18.323 21.6258 19.2963 22.8265 19.2963H27.1743C28.375 19.2963 29.3482 18.323 29.3482 17.1224C30.5489 17.1224 31.5222 16.1491 31.5222 14.9484H31.4498C32.6504 14.9484 33.6961 13.9751 33.6961 12.7745V12.7745Z" fill="black"/>
</g>
<defs>
<clipPath id="clip0_175_252">
<rect width="50" height="50" fill="white" transform="translate(0 0.818359)"/>
</clipPath>
</defs>
</svg>
