<svg width="50" height="51" viewBox="0 0 50 51" fill="none" xmlns="http://www.w3.org/2000/svg">
<g clip-path="url(#clip0_175_252)">
<path d="M25 50.8184C38.8071 50.8184 50 39.6255 50 25.8184C50 12.0112 38.8071 0.818359 25 0.818359C11.1929 0.818359 0 12.0112 0 25.8184C0 39.6255 11.1929 50.8184 25 50.8184Z" fill="#D80027"/>
<path d="M24.9995 37.7744C31.6029 37.7744 36.9561 32.4213 36.9561 25.8179C36.9561 19.2145 31.6029 13.8613 24.9995 13.8613C18.3961 13.8613 13.043 19.2145 13.043 25.8179C13.043 32.4213 18.3961 37.7744 24.9995 37.7744Z" fill="#F0F0F0"/>
<path d="M26.4736 21.2471L28.5248 24.0737L31.8468 22.9966L29.7924 25.8208L31.8434 28.6474L28.5225 27.5661L26.4681 30.3903L26.4702 26.898L23.1494 25.8168L26.4715 24.7396L26.4736 21.2471Z" fill="#D80027"/>
<path d="M27.7177 32.884C23.8157 32.884 20.6524 29.7207 20.6524 25.8188C20.6524 21.9168 23.8157 18.7535 27.7177 18.7535C28.9343 18.7535 30.0791 19.0611 31.0785 19.6027C29.5106 18.0694 27.3666 17.123 25.0003 17.123C20.1979 17.123 16.3047 21.0162 16.3047 25.8187C16.3047 30.6211 20.1979 34.5143 25.0003 34.5143C27.3666 34.5143 29.5107 33.5679 31.0785 32.0346C30.0791 32.5764 28.9343 32.884 27.7177 32.884Z" fill="#D80027"/>
</g>
<defs>
<clipPath id="clip0_175_252">
<rect width="50" height="50" fill="white" transform="translate(0 0.818359)"/>
</clipPath>
</defs>
</svg>
