<svg width="50" height="51" viewBox="0 0 50 51" fill="none" xmlns="http://www.w3.org/2000/svg">
<g clip-path="url(#clip0_175_247)">
<path d="M1.55469 34.6045C5.08701 44.1244 14.2506 50.9089 24.9997 50.9089C35.7488 50.9089 44.9124 44.1244 48.4447 34.6045L24.9997 32.4307L1.55469 34.6045Z" fill="#FFDA44"/>
<path d="M24.9997 0.90918C14.2506 0.90918 5.08701 7.69355 1.55469 17.2136L24.9997 19.3874L48.4447 17.2135C44.9124 7.69355 35.7488 0.90918 24.9997 0.90918Z" fill="black"/>
<path d="M1.55498 17.2139C0.550098 19.9222 0 22.8515 0 25.9095C0 28.9675 0.550098 31.8968 1.55498 34.6051H48.4451C49.45 31.8968 50 28.9675 50 25.9095C50 22.8515 49.45 19.9222 48.445 17.2139H1.55498Z" fill="#D80027"/>
</g>
<defs>
<clipPath id="clip0_175_247">
<rect width="50" height="50" fill="white" transform="translate(0 0.90918)"/>
</clipPath>
</defs>
</svg>
