<svg width="50" height="51" viewBox="0 0 50 51" fill="none" xmlns="http://www.w3.org/2000/svg">
<g clip-path="url(#clip0_175_252)">
<path d="M25 50.8184C38.8071 50.8184 50 39.6255 50 25.8184C50 12.0112 38.8071 0.818359 25 0.818359C11.1929 0.818359 0 12.0112 0 25.8184C0 39.6255 11.1929 50.8184 25 50.8184Z" fill="#F0F0F0"/>
<path d="M49.7884 22.5575H28.261H28.2609V1.02998C27.1935 0.891016 26.1052 0.818359 25 0.818359C23.8948 0.818359 22.8065 0.891016 21.7392 1.02998V22.5573V22.5574H0.211621C0.0726563 23.6249 0 24.713 0 25.8184C0 26.9237 0.0726563 28.0118 0.211621 29.0792H21.739H21.7391V50.6067C22.8065 50.7457 23.8948 50.8184 25 50.8184C26.1052 50.8184 27.1935 50.7458 28.2608 50.6067V29.0794V29.0793H49.7884C49.9273 28.0118 50 26.9237 50 25.8184C50 24.713 49.9273 23.6249 49.7884 22.5575V22.5575Z" fill="#D80027"/>
</g>
<defs>
<clipPath id="clip0_175_252">
<rect width="50" height="50" fill="white" transform="translate(0 0.818359)"/>
</clipPath>
</defs>
</svg>
