<svg width="50" height="51" viewBox="0 0 50 51" fill="none" xmlns="http://www.w3.org/2000/svg">
<g clip-path="url(#clip0_175_252)">
<path d="M25 50.8184C38.8071 50.8184 50 39.6255 50 25.8184C50 12.0112 38.8071 0.818359 25 0.818359C11.1929 0.818359 0 12.0112 0 25.8184C0 39.6255 11.1929 50.8184 25 50.8184Z" fill="#F0F0F0"/>
<path d="M23.9131 25.8187H50C50 23.5622 49.6992 21.3763 49.1388 19.2969H23.9131V25.8187Z" fill="#D80027"/>
<path d="M23.9131 12.7747H46.3307C44.8003 10.2774 42.8436 8.07012 40.5621 6.25293H23.9131V12.7747Z" fill="#D80027"/>
<path d="M24.9996 50.8186C30.8833 50.8186 36.2912 48.785 40.5617 45.3838H9.4375C13.708 48.785 19.1159 50.8186 24.9996 50.8186Z" fill="#D80027"/>
<path d="M3.66943 38.8616H46.3308C47.5594 36.8568 48.5122 34.6654 49.1389 32.3398H0.861328C1.48799 34.6654 2.44082 36.8568 3.66943 38.8616V38.8616Z" fill="#D80027"/>
<path d="M11.5805 4.72246H13.8587L11.7396 6.26201L12.549 8.75312L10.43 7.21357L8.31094 8.75312L9.01016 6.60107C7.14434 8.15527 5.50898 9.97617 4.16133 12.0051H4.89131L3.54238 12.9851C3.33223 13.3356 3.13066 13.6918 2.9375 14.0532L3.58164 16.0357L2.37988 15.1626C2.08115 15.7955 1.80791 16.4427 1.5623 17.1033L2.27197 19.2877H4.89131L2.77217 20.8272L3.58164 23.3184L1.4626 21.7788L0.193262 22.7011C0.0662109 23.7224 0 24.7626 0 25.8184H25C25 12.0113 25 10.3836 25 0.818359C20.0613 0.818359 15.4575 2.25098 11.5805 4.72246V4.72246ZM12.549 23.3184L10.43 21.7788L8.31094 23.3184L9.12041 20.8272L7.00127 19.2877H9.62061L10.43 16.7966L11.2394 19.2877H13.8587L11.7396 20.8272L12.549 23.3184ZM11.7396 13.5446L12.549 16.0357L10.43 14.4962L8.31094 16.0357L9.12041 13.5446L7.00127 12.0051H9.62061L10.43 9.51396L11.2394 12.0051H13.8587L11.7396 13.5446ZM21.5164 23.3184L19.3974 21.7788L17.2783 23.3184L18.0878 20.8272L15.9687 19.2877H18.588L19.3974 16.7966L20.2067 19.2877H22.8261L20.7069 20.8272L21.5164 23.3184ZM20.7069 13.5446L21.5164 16.0357L19.3974 14.4962L17.2783 16.0357L18.0878 13.5446L15.9687 12.0051H18.588L19.3974 9.51396L20.2067 12.0051H22.8261L20.7069 13.5446ZM20.7069 6.26201L21.5164 8.75312L19.3974 7.21357L17.2783 8.75312L18.0878 6.26201L15.9687 4.72246H18.588L19.3974 2.23135L20.2067 4.72246H22.8261L20.7069 6.26201Z" fill="#0052B4"/>
</g>
<defs>
<clipPath id="clip0_175_252">
<rect width="50" height="50" fill="white" transform="translate(0 0.818359)"/>
</clipPath>
</defs>
</svg>
