<svg width="50" height="51" viewBox="0 0 50 51" fill="none" xmlns="http://www.w3.org/2000/svg">
<g clip-path="url(#clip0_175_247)">
<path d="M25 50.9092C38.8071 50.9092 50 39.7163 50 25.9092C50 12.1021 38.8071 0.90918 25 0.90918C11.1929 0.90918 0 12.1021 0 25.9092C0 39.7163 11.1929 50.9092 25 50.9092Z" fill="#D80027"/>
<path d="M39.774 21.4254H28.4875L24.9998 10.6914L21.5121 21.4254H10.2256L19.3565 28.0594L15.8687 38.7937L24.9998 32.1596L34.1309 38.7937L30.6431 28.0595L39.774 21.4254ZM21.9121 27.229L23.0915 23.5992H26.908L28.0875 27.229V27.2291L24.9998 29.4724L21.9122 27.2291L21.9121 27.229ZM26.2018 21.4254H23.7979L24.9998 17.7262L26.2018 21.4254ZM29.9366 25.8855L29.1937 23.5993H33.0833L29.9366 25.8855ZM20.8058 23.5993L20.0629 25.8855L16.9161 23.5993H20.8058ZM20.0038 33.1022L21.2058 29.4031L23.1506 30.816L20.0038 33.1022ZM26.849 30.8161L28.7938 29.4032L29.9958 33.1023L26.849 30.8161Z" fill="#FFDA44"/>
</g>
<defs>
<clipPath id="clip0_175_247">
<rect width="50" height="50" fill="white" transform="translate(0 0.90918)"/>
</clipPath>
</defs>
</svg>
